<?xml version="1.0" encoding="iso-8859-1"?>
<!-- Generator: Adobe Illustrator 18.0.0, SVG Export Plug-In . SVG Version: 6.00 Build 0)  -->
<!DOCTYPE svg PUBLIC "-//W3C//DTD SVG 1.1//EN" "http://www.w3.org/Graphics/SVG/1.1/DTD/svg11.dtd">
<svg version="1.1" id="Capa_1" xmlns="http://www.w3.org/2000/svg" xmlns:xlink="http://www.w3.org/1999/xlink" x="0px" y="0px"
	 viewBox="0 0 474.267 474.267" style="enable-background:new 0 0 474.267 474.267;" xml:space="preserve" fill="white">
<g>
	<path d="M474.084,273.424c-0.652-6.439-3.045-12.498-6.88-17.6c2.736-5.767,3.866-12.182,3.215-18.622v0
		c-1.962-19.381-19.323-33.547-38.704-31.592c-16.467,1.666-29.167,14.453-31.413,30.147l-43.552,4.406
		c-8.22-9.284-20.12-15.184-33.307-15.464l-2.24-0.047c-3.778-6.052-7.944-11.889-12.441-17.439l39.373-16.574
		c3.801,5.108,8.932,9.103,14.981,11.567c4.306,1.754,8.82,2.631,13.334,2.631c4.646,0,9.292-0.929,13.703-2.787
		c17.953-7.558,26.411-28.312,18.854-46.266c-2.511-5.965-6.574-11.057-11.738-14.81c0.925-6.316,0.124-12.781-2.388-18.747
		c-3.66-8.697-10.489-15.448-19.228-19.009c-8.739-3.562-18.34-3.506-27.038,0.155c-15.254,6.421-23.647,22.37-21.191,38.033
		l-40.329,16.977c-10.822-6.607-24.075-8.502-36.396-5.013l-9.793,2.778c-21.549-9.104-44.371-13.731-67.896-13.731
		c-24.703,0-48.369,5.176-69.872,14.572l-1.131-42.727c-0.105-3.982-2.963-7.357-6.873-8.119c-3.901-0.762-7.824,1.294-9.416,4.947
		l-2.438,5.594c-4.063,9.303-9.912,17.49-17.382,24.334c-7.477,6.848-16.143,11.955-25.76,15.178
		c-8.355,2.8-14.872,9.156-17.881,17.437c-3.011,8.284-2.093,17.344,2.52,24.863l8.482,13.804
		c-15.78,21.03-26.986,45.861-32.01,73.159C0.42,289.973,0,294.564,0,299.109c0,41.118,33.52,74.57,74.72,74.57h196.57
		c19.014,0,37.111-7.13,50.96-20.077c12.388-11.583,20.397-26.843,22.9-43.382c7.115-4.066,12.945-9.944,16.967-16.916l43.55-4.406
		c2.136,5.999,5.87,11.322,10.93,15.451c6.366,5.197,14.163,7.963,22.271,7.963c1.201,0,2.411-0.061,3.622-0.183
		c9.389-0.95,17.845-5.499,23.813-12.809C472.271,292.01,475.033,282.813,474.084,273.424z M355.211,119.043
		c2.289-0.963,4.698-1.445,7.109-1.445c2.341,0,4.684,0.455,6.917,1.365c4.533,1.848,8.076,5.35,9.976,9.862v0
		c1.786,4.243,1.896,8.986,0.308,13.355c-1.517,4.174,0.437,8.813,4.482,10.646c4.234,1.918,7.55,5.312,9.336,9.555
		c3.92,9.313-0.468,20.081-9.781,24.002c-4.512,1.898-9.493,1.928-14.026,0.081c-4.533-1.848-8.076-5.35-9.976-9.862
		c-1.786-4.243-1.896-8.986-0.308-13.354c1.518-4.175-0.436-8.815-4.482-10.647c-4.234-1.917-7.55-5.31-9.336-9.553
		C341.51,133.731,345.897,122.964,355.211,119.043z M341.567,174.959l-33.377,14.05c-0.598-3.186-1.527-6.314-2.805-9.356
		c-1.269-3.017-2.873-5.868-4.739-8.528l33.392-14.057c2.105,2.813,4.608,5.309,7.462,7.383
		C340.988,167.945,341.025,171.483,341.567,174.959z M289.714,186.243c0.194,0.461,0.375,0.926,0.544,1.394
		c-1.797-1.628-3.628-3.22-5.489-4.77c-6.206-5.167-12.751-9.891-19.588-14.144c5.653,0.399,11.155,2.449,15.724,6.009
		C284.759,177.726,287.806,181.708,289.714,186.243z M39.265,189.604c-1.885-3.072-2.26-6.776-1.029-10.162
		c1.229-3.383,3.893-5.98,7.306-7.124c11.887-3.984,22.6-10.296,31.841-18.762c3.026-2.772,5.837-5.723,8.425-8.842l0.548,20.714
		c-15.478,8.855-29.515,20.027-41.606,33.1L39.265,189.604z M271.29,356.679H74.72c-31.827,0-57.72-25.826-57.72-57.57
		c0-3.517,0.326-7.074,0.969-10.571c13.77-74.816,78.974-129.119,155.041-129.119c22.181,0,43.672,4.542,63.868,13.498
		c13.336,5.926,25.789,13.669,37.013,23.014c6.637,5.526,12.844,11.625,18.458,18.137c2.82,3.263,5.502,6.654,8.049,10.143
		l-66.952-1.423c-16.248-0.36-31.919,6.311-42.953,18.261c-11.035,11.95-16.425,28.085-14.787,44.268
		c1.638,16.183,10.149,30.912,23.354,40.409c9.748,7.012,21.384,10.691,33.19,10.691c4.187,0,8.397-0.463,12.55-1.405l81.455-18.464
		C318.736,339.837,296.647,356.679,271.29,356.679z M328.833,298.533l-87.791,19.9c-11.115,2.518-22.801,0.148-32.056-6.508
		c-9.255-6.656-15.22-16.979-16.367-28.32c-1.147-11.341,2.629-22.648,10.362-31.023c7.542-8.168,18.164-12.807,29.258-12.807
		c0.281,0,0.563,0.003,0.845,0.009l89.998,1.913c14.514,0.308,26.56,11.432,28.021,25.875S342.99,295.324,328.833,298.533z
		 M368.017,265.859c-0.334-3.304-1.027-6.494-2.02-9.543l36.037-3.646c1.188,3.307,2.849,6.426,4.969,9.245
		c-1.514,3.191-2.517,6.584-3.018,10.066l-36.037,3.646C368.311,272.435,368.351,269.167,368.017,265.859z M453.134,288.57
		c-3.096,3.792-7.482,6.152-12.354,6.645c-4.867,0.495-9.641-0.94-13.434-4.036c-3.792-3.095-6.152-7.482-6.645-12.354
		c-0.464-4.58,0.822-9.146,3.622-12.858c2.675-3.546,2.168-8.555-1.163-11.493c-3.486-3.075-5.661-7.291-6.124-11.871
		c-1.018-10.055,6.335-19.062,16.389-20.079c0.625-0.063,1.244-0.094,1.859-0.094c9.281,0,17.266,7.054,18.22,16.484
		c0.463,4.581-0.823,9.147-3.622,12.857c-2.675,3.546-2.168,8.554,1.162,11.493c3.486,3.075,5.661,7.292,6.125,11.873
		C457.663,280.007,456.229,284.777,453.134,288.57z"/>
	<path d="M149.519,254.219l-6.103,0.365c-20.295,1.217-40.267-6.26-54.78-20.508c-6.291-6.176-14.929-9.101-23.664-8.017
		c-8.749,1.081-16.403,6.013-21.003,13.533l-17.42,28.485c-2.448,4.005-1.188,9.237,2.817,11.686
		c4.005,2.451,9.236,1.188,11.687-2.817l17.42-28.485c1.879-3.073,5.007-5.089,8.583-5.531c3.572-0.441,7.102,0.753,9.671,3.276
		c11.938,11.719,26.857,19.73,42.9,23.336l-22.155,12.034c-1.709,0.93-3.863,0.614-5.234-0.767
		c-5.368-5.404-12.989-7.529-20.376-5.683c-7.391,1.846-13.115,7.302-15.313,14.595l-3.919,13.004
		c-1.354,4.495,1.191,9.237,5.687,10.591c0.817,0.246,1.644,0.364,2.455,0.364c3.652,0,7.027-2.373,8.136-6.05l3.919-13.004
		c0.652-2.166,2.424-2.824,3.154-3.007c0.732-0.183,2.604-0.434,4.198,1.171c6.658,6.702,17.107,8.232,25.409,3.723l48.496-26.343
		c3.5-1.901,5.21-5.978,4.114-9.807C157.103,256.537,153.516,253.984,149.519,254.219z"/>
</g>
<g>
</g>
<g>
</g>
<g>
</g>
<g>
</g>
<g>
</g>
<g>
</g>
<g>
</g>
<g>
</g>
<g>
</g>
<g>
</g>
<g>
</g>
<g>
</g>
<g>
</g>
<g>
</g>
<g>
</g>
</svg>
