<?xml version="1.0" encoding="iso-8859-1"?>
<!-- Generator: Adobe Illustrator 19.0.0, SVG Export Plug-In . SVG Version: 6.00 Build 0)  -->
<svg version="1.1" id="Layer_1" xmlns="http://www.w3.org/2000/svg" xmlns:xlink="http://www.w3.org/1999/xlink" x="0px" y="0px"
	 viewBox="0 0 511.999 511.999" style="enable-background:new 0 0 511.999 511.999;" xml:space="preserve" fill="white">
<g>
	<g>
		<path d="M433.326,313.12c-1.935-2.445-4.881-3.871-7.999-3.871h-25.914l5.106-9.353c8.039-14.727,7.726-32.132-0.835-46.561
			c-8.563-14.429-23.691-23.043-40.468-23.043h-5.918c1.748-10.691-0.259-21.758-6.026-31.476
			c-8.562-14.428-23.691-23.042-40.468-23.042h-11.926c7.479-9.316,11.969-21.131,11.969-33.978
			c0-26.48-19.031-48.588-44.131-53.396c0.715-15.547,5.846-53.71,38.274-68.971c5.097-2.399,7.284-8.474,4.885-13.571
			c-2.398-5.096-8.474-7.285-13.571-4.886c-43.34,20.395-49.402,68.338-50.046,87.421c-25.118,4.793-44.166,26.908-44.166,53.402
			c0,12.849,4.49,24.663,11.969,33.978h-12.866c-16.778,0-31.906,8.614-40.468,23.042c-5.767,9.718-7.774,20.785-6.026,31.476
			h-5.918c-16.778,0-31.905,8.614-40.468,23.043c-8.562,14.429-8.874,31.835-0.835,46.561l5.106,9.353H86.674
			c-3.118,0-6.063,1.426-7.999,3.871c-1.934,2.445-2.644,5.64-1.927,8.674l43.102,182.353c1.087,4.602,5.196,7.853,9.925,7.853
			h252.45c4.729,0,8.838-3.251,9.925-7.853l43.102-182.353C435.969,318.76,435.26,315.565,433.326,313.12z M256.47,107.817
			c18.736,0,33.978,15.243,33.978,33.978s-15.243,33.978-33.978,33.978c-18.736,0-33.978-15.243-33.978-33.978
			S237.734,107.817,256.47,107.817z M178.269,209.226c4.851-8.174,13.421-13.054,22.927-13.054h109.609
			c7.688,0,14.762,3.195,19.754,8.741H278.09c-5.632,0-10.199,4.566-10.199,10.199s4.567,10.199,10.199,10.199h59.284
			c-0.16,1.676-0.475,3.343-0.959,4.98H175.587C173.512,223.277,174.417,215.719,178.269,209.226z M125.859,263.744
			c4.851-8.175,13.42-13.054,22.926-13.054h214.431v0c9.505,0,18.075,4.88,22.926,13.054c4.851,8.174,5.028,18.035,0.474,26.377
			l-10.441,19.126H135.826l-6.31-11.56h64.917c5.632,0,10.199-4.566,10.199-10.199s-4.567-10.199-10.199-10.199h-72.331
			C122.111,272.618,123.359,267.957,125.859,263.744z M137.845,491.601l-38.28-161.954h86.352l13.929,161.954H137.845z
			 M291.682,491.601h-71.364l-13.929-161.954h99.222L291.682,491.601z M374.156,491.601h-62.001l13.929-161.954h86.351
			L374.156,491.601z"/>
	</g>
</g>
<g>
	<g>
		<path d="M235.791,277.29h-5.64c-5.632,0-10.199,4.566-10.199,10.199s4.567,10.199,10.199,10.199h5.64
			c5.632,0,10.199-4.566,10.199-10.199S241.423,277.29,235.791,277.29z"/>
	</g>
</g>
<g>
</g>
<g>
</g>
<g>
</g>
<g>
</g>
<g>
</g>
<g>
</g>
<g>
</g>
<g>
</g>
<g>
</g>
<g>
</g>
<g>
</g>
<g>
</g>
<g>
</g>
<g>
</g>
<g>
</g>
</svg>
