<?xml version="1.0" encoding="iso-8859-1"?>
<!-- Generator: Adobe Illustrator 19.0.0, SVG Export Plug-In . SVG Version: 6.00 Build 0)  -->
<svg version="1.1" id="Layer_1" xmlns="http://www.w3.org/2000/svg" xmlns:xlink="http://www.w3.org/1999/xlink" x="0px" y="0px"
	 viewBox="0 0 512 512" style="enable-background:new 0 0 512 512;" xml:space="preserve" fill="white">
<g>
	<g>
		<g>
			<path d="M487.857,128.823c0-9.426-7.642-17.068-17.068-17.068H360.837c-7.039-11.294-15.228-20.247-26.391-28.938
				c1.31-17.21,6.773-29.904,16.305-37.785c18.784-15.527,48.912-9.98,49.141-9.935c9.253,1.849,18.238-4.135,20.093-13.375
				c1.855-9.243-4.134-18.238-13.375-20.093c-1.862-0.372-45.939-8.85-77.36,16.891c-13.611,11.15-22.498,26.527-26.606,45.865
				c-29.096-11.602-62.507-12.282-93.282,0.006c-4.108-19.34-12.995-34.719-26.608-45.87C151.331-7.22,107.254,1.256,105.393,1.629
				c-9.242,1.856-15.265,10.859-13.411,20.1c1.855,9.242,10.814,15.242,20.057,13.382c0.304-0.055,30.428-5.606,49.212,9.922
				c9.544,7.89,15.008,20.603,16.31,37.842c-10.196,8.135-19.133,17.861-26.423,28.88H41.211c-9.426,0-17.068,7.642-17.068,17.068
				c0,47.744,43.416,84.35,90.811,75.544c-3.639,10.54-17.972,52.072-40.465,117.218c-3.077,8.911,1.652,18.627,10.563,21.703
				c8.912,3.076,18.628-1.654,21.703-10.563l9.637-27.908l61.049,153.834c12.836,32.349,43.592,53.267,78.386,53.338
				c0.059,0.001,0.116,0.009,0.175,0.009c0.059,0,0.116-0.008,0.175-0.009c34.786-0.071,65.543-20.988,78.384-53.337l61.048-153.833
				l9.635,27.906c3.078,8.913,12.794,13.638,21.703,10.563c8.911-3.077,13.639-12.793,10.563-21.703
				c-27.4-79.355-29.042-83.942-40.159-117.161C444.781,213.039,487.857,176.313,487.857,128.823z M61.835,145.891h73.28
				c-1.467,4.24-2.974,8.673-4.799,13.98C108.897,180.103,73.741,173.111,61.835,145.891z M302.833,446.06
				c-5.472,13.784-16.402,24.084-29.764,28.855v-83.661l22.192-25.624c9.541-11.019,1.712-28.242-12.902-28.242h-52.714
				c-14.571,0-22.47,17.191-12.902,28.242l22.192,25.624v83.662c-13.364-4.771-24.294-15.07-29.764-28.855l-75.695-190.742
				c32.945-95.414,28.138-81.474,31.475-91.206C198.644,65.72,312.057,61.92,347.043,164.09
				c4.695,13.703,29.844,86.432,31.489,91.222L302.833,446.06z M382.446,160.557c-1.856-5.225-3.646-10.098-5.406-14.666h73.124
				C438.488,172.591,404.143,180.083,382.446,160.557z"/>
			<circle cx="303.016" cy="249.421" r="22.578"/>
			<circle cx="209.672" cy="249.421" r="22.578"/>
		</g>
	</g>
</g>
<g>
</g>
<g>
</g>
<g>
</g>
<g>
</g>
<g>
</g>
<g>
</g>
<g>
</g>
<g>
</g>
<g>
</g>
<g>
</g>
<g>
</g>
<g>
</g>
<g>
</g>
<g>
</g>
<g>
</g>
</svg>
