<?xml version="1.0" encoding="iso-8859-1"?>
<!-- Generator: Adobe Illustrator 19.0.0, SVG Export Plug-In . SVG Version: 6.00 Build 0)  -->
<svg version="1.1" id="Capa_1" xmlns="http://www.w3.org/2000/svg" xmlns:xlink="http://www.w3.org/1999/xlink" x="0px" y="0px"
	 viewBox="0 0 59.481 59.481" style="enable-background:new 0 0 59.481 59.481;" xml:space="preserve" fill="white">
<path d="M25.96,38.114c0.525-0.755,0.895-1.631,1.048-2.59l0.991-3.588l-3.588,0.991c-0.958,0.152-1.832,0.522-2.587,1.046
	c-0.129-1.015-0.501-2.008-1.136-2.884l-1.836-3.238l-1.836,3.238c-1.596,2.199-1.597,5.128,0,7.327l1.432,2.525l0.544,0.546
	l2.531,1.435c1.1,0.798,2.382,1.196,3.663,1.196c1.282,0,2.564-0.398,3.664-1.196l3.237-1.836l-3.237-1.837
	C27.972,38.614,26.978,38.243,25.96,38.114z M24.769,34.896l0.363-0.093l-0.093,0.363c-0.276,1.858-1.711,3.294-3.569,3.57
	l-0.364,0.093l0.093-0.364C21.475,36.607,22.91,35.173,24.769,34.896z M18.66,32.229l0.191-0.323l0.191,0.323
	c1.119,1.51,1.119,3.538,0,5.048L18.851,37.6l-0.191-0.323C17.541,35.768,17.541,33.739,18.66,32.229z M27.711,41.279
	c-1.512,1.118-3.542,1.116-5.05,0l-0.323-0.191l0.323-0.192c1.509-1.117,3.539-1.117,5.05,0l0.323,0.192L27.711,41.279z
	 M20.944,30.405c0.195,0.195,0.451,0.293,0.707,0.293s0.512-0.098,0.707-0.293l3.509-3.509c0.391-0.391,0.391-1.023,0-1.414
	s-1.023-0.391-1.414,0l-3.509,3.509C20.553,29.382,20.553,30.015,20.944,30.405z M24.289,31.303
	c0.195,0.195,0.451,0.293,0.707,0.293s0.512-0.098,0.707-0.293l4.386-4.387c0.391-0.391,0.391-1.023,0-1.414s-1.023-0.391-1.414,0
	l-4.386,4.387C23.899,30.279,23.899,30.912,24.289,31.303z M33.26,29.402l-4.387,4.387c-0.391,0.391-0.391,1.023,0,1.414
	c0.195,0.195,0.451,0.293,0.707,0.293s0.512-0.098,0.707-0.293l4.387-4.387c0.391-0.391,0.391-1.023,0-1.414
	S33.651,29.012,33.26,29.402z M28.937,30.88c0.195,0.195,0.451,0.293,0.707,0.293s0.512-0.098,0.707-0.293l3.948-3.947
	c0.391-0.391,0.391-1.023,0-1.414s-1.023-0.391-1.414,0l-3.948,3.947C28.546,29.856,28.546,30.489,28.937,30.88z M32.938,33.968
	l-3.509,3.509c-0.391,0.391-0.391,1.023,0,1.414c0.195,0.195,0.451,0.293,0.707,0.293s0.512-0.098,0.707-0.293l3.509-3.509
	c0.391-0.391,0.391-1.023,0-1.414S33.328,33.577,32.938,33.968z M8.332,40.189l1.414-1.414l1.414,1.414l-1.414,1.414L8.332,40.189z
	 M10.455,42.312l1.414-1.415l1.415,1.414l-1.414,1.415L10.455,42.312z M12.574,44.431l1.414-1.414l1.414,1.414l-1.414,1.414
	L12.574,44.431z M14.695,46.553l1.414-1.414l1.414,1.414l-1.414,1.414L14.695,46.553z M16.817,48.674l1.414-1.414l1.414,1.414
	l-1.414,1.414L16.817,48.674z M20.352,52.21l-1.414-1.414l1.414-1.414l1.414,1.414L20.352,52.21z M24.795,14.81
	c-1.225,2.448-2.827,4.672-4.762,6.606L5.987,35.464l-5.541,2.523l-0.067,0.558c-0.148,1.239,0.373,2.632,1.431,3.822
	c0.914,1.028,2.057,1.7,3.146,1.869c0.104,0.942,0.497,1.79,1.134,2.427c0.633,0.632,1.475,1.023,2.411,1.129
	c0.105,0.938,0.497,1.779,1.131,2.412c0.633,0.634,1.475,1.025,2.412,1.131c0.105,0.938,0.497,1.779,1.13,2.413
	c0.637,0.636,1.483,1.028,2.426,1.132c0.168,1.088,0.841,2.23,1.869,3.146c1.057,0.938,2.273,1.455,3.4,1.455
	c0.143,0,0.283-0.008,0.422-0.024l0.56-0.067l2.493-5.512L38.42,39.802c1.936-1.936,4.158-3.537,6.606-4.761l3.063-1.531
	L26.325,11.746L24.795,14.81z M26.874,15.123L44.711,32.96l-0.581,0.291c-2.641,1.32-5.038,3.048-7.126,5.136L23.181,52.21
	l-0.707-0.707l-1.414,1.414l1.048,1.048l-1.576,3.484c-0.554-0.099-1.18-0.425-1.735-0.919c-0.755-0.67-1.241-1.526-1.24-2.178
	c0.002-0.377-0.153-0.749-0.426-1.021c-0.271-0.27-0.638-0.424-1.01-0.424c-0.006-0.001-0.012-0.001-0.017,0
	c-0.617,0-1.142-0.198-1.517-0.573c-0.378-0.378-0.576-0.906-0.574-1.528c0.002-0.394-0.146-0.758-0.415-1.027
	c-0.267-0.267-0.629-0.414-1.02-0.414c-0.006-0.001-0.012-0.001-0.017,0c-0.617,0-1.142-0.198-1.518-0.574
	c-0.378-0.378-0.576-0.906-0.574-1.528c0.002-0.393-0.146-0.757-0.414-1.025s-0.63-0.415-1.021-0.415c-0.002,0-0.004,0-0.006,0
	c-0.637,0.033-1.148-0.196-1.527-0.573c-0.378-0.378-0.576-0.906-0.574-1.528c0.002-0.374-0.153-0.744-0.424-1.016
	c-0.272-0.272-0.624-0.415-1.02-0.426c0,0-0.001,0-0.002,0c-0.653,0-1.508-0.486-2.178-1.24c-0.495-0.557-0.821-1.183-0.919-1.736
	l4.759-2.168L6.21,38.067l1.414,1.414l1.415-1.414l-1.414-1.414l-0.043,0.043L21.447,22.83c2.087-2.087,3.815-4.484,5.137-7.126
	L26.874,15.123z M40.656,1.153l1.393,1.436L30.126,14.155l-1.393-1.436L40.656,1.153z M47.128,31.097l-1.451-1.377l10.949-11.54
	l1.451,1.377L47.128,31.097z M47.106,1.414l-14.85,14.85l-1.414-1.414L45.692,0L47.106,1.414z M51.35,1.414l-16.97,16.97
	l-1.414-1.414L49.935,0L51.35,1.414z M54.177,2.828L36.5,20.506l-1.414-1.414L52.763,1.414L54.177,2.828z M56.299,4.949
	L38.622,22.627l-1.414-1.414L54.885,3.535L56.299,4.949z M40.743,24.749l-1.414-1.414l16.97-16.97l1.414,1.414L40.743,24.749z
	 M42.864,26.871l-1.414-1.414L57.713,9.194l1.414,1.414L42.864,26.871z M45,28.985l-1.432-1.397l14.069-14.421l1.432,1.397
	L45,28.985z"/>
<g>
</g>
<g>
</g>
<g>
</g>
<g>
</g>
<g>
</g>
<g>
</g>
<g>
</g>
<g>
</g>
<g>
</g>
<g>
</g>
<g>
</g>
<g>
</g>
<g>
</g>
<g>
</g>
<g>
</g>
</svg>
