<?xml version="1.0" encoding="iso-8859-1"?>
<!-- Generator: Adobe Illustrator 18.0.0, SVG Export Plug-In . SVG Version: 6.00 Build 0)  -->
<!DOCTYPE svg PUBLIC "-//W3C//DTD SVG 1.1//EN" "http://www.w3.org/Graphics/SVG/1.1/DTD/svg11.dtd">
<svg version="1.1" id="Capa_1" xmlns="http://www.w3.org/2000/svg" xmlns:xlink="http://www.w3.org/1999/xlink" x="0px" y="0px"
	 viewBox="0 0 417.608 417.608" style="enable-background:new 0 0 417.608 417.608;" xml:space="preserve" fill="white">
<g>
	<path d="M94.62,204.109c1.445,0.951,3.276,1.088,4.847,0.362c1.569-0.725,2.653-2.21,2.865-3.926
		c0.308-2.493,2.439-4.373,4.958-4.373c1.334,0,2.334,0.524,2.938,0.964c1.438,1.046,3.324,1.25,4.952,0.534
		c1.628-0.715,2.754-2.241,2.957-4.008c0.289-2.514,2.422-4.41,4.963-4.41c1.396,0,2.428,0.572,3.046,1.052
		c1.423,1.103,3.328,1.355,4.989,0.663c1.661-0.693,2.821-2.226,3.038-4.013c0.303-2.503,2.434-4.392,4.956-4.392
		c1.42,0,2.462,0.586,3.085,1.077c1.405,1.106,3.293,1.379,4.954,0.714c1.66-0.666,2.839-2.167,3.091-3.938
		c0.348-2.442,2.471-4.284,4.939-4.284c1.391,0,2.41,0.563,3.02,1.034c1.381,1.068,3.22,1.341,4.849,0.715
		c1.63-0.625,2.816-2.054,3.13-3.771c0.433-2.374,2.499-4.097,4.911-4.097c1.061,0,2.079,0.33,2.945,0.955
		c1.356,0.978,3.112,1.214,4.678,0.627c1.566-0.586,2.735-1.917,3.116-3.546c0.527-2.259,2.522-3.837,4.851-3.837
		c0.978,0,1.929,0.286,2.75,0.827c1.316,0.867,2.964,1.061,4.447,0.527c1.482-0.535,2.626-1.737,3.085-3.245
		c0.645-2.116,2.569-3.538,4.788-3.538c0.881,0,1.736,0.236,2.541,0.7c1.266,0.731,2.79,0.871,4.166,0.383
		c1.378-0.487,2.474-1.553,2.999-2.917c0.748-1.941,2.574-3.196,4.654-3.196c0.768,0,1.515,0.18,2.221,0.536
		c1.196,0.603,2.585,0.699,3.855,0.27c1.27-0.431,2.313-1.353,2.896-2.559c0.846-1.75,2.57-2.836,4.499-2.836
		c0.659,0,1.299,0.127,1.903,0.378c2.297,0.954,4.945,0.073,6.216-2.065c0.908-1.529,2.508-2.442,4.281-2.442
		c0.847,0,1.645,0.203,2.373,0.603c1.21,0.664,2.64,0.8,3.95,0.373c1.312-0.426,2.389-1.375,2.978-2.622
		c0.84-1.779,2.575-2.884,4.529-2.884c1.021,0,2.003,0.308,2.839,0.891c1.265,0.883,2.866,1.132,4.34,0.675
		c1.473-0.457,2.653-1.567,3.198-3.011c0.746-1.977,2.583-3.255,4.682-3.255c1.401,0,2.434,0.577,3.053,1.06
		c1.264,0.987,2.925,1.308,4.467,0.863c1.541-0.446,2.774-1.604,3.316-3.113c0.715-1.992,2.606-3.33,4.704-3.33
		c1.008,0,1.993,0.312,2.847,0.903c2.27,1.569,5.382,1.002,6.955-1.267c0.934-1.35,2.466-2.156,4.099-2.156
		c1.465,0,2.509,0.598,3.126,1.1c1.905,1.548,4.652,1.484,6.483-0.15c0.925-0.825,2.107-1.28,3.331-1.28
		c1.654,0,3.149,0.781,4.102,2.144c1.582,2.264,4.699,2.816,6.962,1.234c2.264-1.582,2.816-4.699,1.234-6.962
		c-2.808-4.017-7.405-6.416-12.298-6.416c-2.386,0-4.715,0.569-6.81,1.64c-1.915-0.856-4.006-1.31-6.13-1.31
		c-3.418,0-6.688,1.17-9.305,3.245c-1.477-0.479-3.023-0.725-4.596-0.725c-4.399,0-8.491,1.946-11.288,5.145
		c-1.376-0.411-2.81-0.625-4.252-0.625c-4.394,0-8.506,1.961-11.311,5.173c-1.214-0.313-2.472-0.474-3.749-0.474
		c-4.211,0-8.185,1.799-10.985,4.803c-0.935-0.18-1.888-0.272-2.845-0.272c-3.93,0-7.681,1.572-10.447,4.256
		c-0.644-0.084-1.296-0.126-1.953-0.126c-4.276,0-8.212,1.768-10.999,4.795c-0.811-0.137-1.636-0.205-2.472-0.205
		c-4.542,0-8.682,1.99-11.467,5.317c-0.953-0.19-1.922-0.287-2.893-0.287c-4.766,0-9.08,2.194-11.854,5.777
		c-1.049-0.23-2.127-0.348-3.216-0.348c-4.957,0-9.413,2.385-12.155,6.195c-1.116-0.261-2.267-0.395-3.435-0.395
		c-5.086,0-9.66,2.55-12.383,6.536c-1.142-0.276-2.323-0.417-3.527-0.417c-5.188,0-9.869,2.708-12.57,6.85
		c-1.143-0.276-2.318-0.419-3.5-0.419c-5.315,0-10.052,2.793-12.719,7.057c-1.075-0.243-2.184-0.367-3.311-0.367
		c-5.4,0-10.188,2.86-12.83,7.217c-0.973-0.197-1.97-0.297-2.98-0.297c-5.427,0-10.256,2.914-12.89,7.332
		c-0.827-0.14-1.67-0.211-2.52-0.211c-5.406,0-10.267,2.952-12.908,7.401c-0.629-0.081-1.264-0.121-1.902-0.121
		c-5.484,0-10.341,2.935-12.957,7.438c-0.355-0.025-0.713-0.038-1.073-0.038c-5.47,0-10.376,2.975-12.997,7.51
		c-0.027,0-0.055,0-0.083,0c-6.956,0-13.108,4.923-14.629,11.707c-0.604,2.694,1.09,5.369,3.785,5.973
		c0.368,0.083,0.736,0.122,1.099,0.122c2.288,0,4.353-1.581,4.874-3.907c0.626-2.797,3.618-4.601,6.532-3.609
		c1.365,0.464,2.866,0.316,4.114-0.407c1.249-0.723,2.124-1.95,2.401-3.365c0.457-2.331,2.519-4.022,4.903-4.022
		c0.712,0,1.41,0.156,2.074,0.464c1.413,0.656,3.053,0.616,4.434-0.109c1.38-0.726,2.342-2.054,2.602-3.591
		c0.408-2.413,2.478-4.164,4.92-4.164c0.875,0,1.695,0.215,2.436,0.639c1.437,0.823,3.188,0.881,4.676,0.155
		c1.488-0.726,2.521-2.141,2.757-3.78c0.354-2.448,2.478-4.294,4.941-4.294C92.875,203.293,93.797,203.568,94.62,204.109z"/>
	<path d="M287.727,152.128c-2.625-2.05-5.896-3.18-9.208-3.18c-4.394,0-8.506,1.961-11.311,5.173
		c-1.214-0.313-2.471-0.473-3.749-0.473c-4.211,0-8.185,1.798-10.985,4.803c-0.935-0.181-1.888-0.273-2.845-0.273
		c-3.93,0-7.681,1.572-10.447,4.257c-0.644-0.084-1.296-0.126-1.953-0.126c-4.275,0-8.211,1.768-10.999,4.795
		c-0.812-0.137-1.636-0.205-2.472-0.205c-4.542,0-8.681,1.99-11.467,5.316c-0.953-0.19-1.922-0.287-2.893-0.287
		c-4.766,0-9.08,2.194-11.854,5.778c-1.05-0.23-2.127-0.348-3.216-0.348c-4.958,0-9.413,2.385-12.156,6.195
		c-1.116-0.262-2.267-0.395-3.435-0.395c-5.087,0-9.66,2.55-12.383,6.537c-1.142-0.276-2.323-0.417-3.526-0.417
		c-5.188,0-9.869,2.708-12.571,6.85c-1.143-0.276-2.318-0.419-3.5-0.419c-5.315,0-10.052,2.792-12.719,7.057
		c-1.075-0.243-2.184-0.367-3.311-0.367c-5.399,0-10.187,2.861-12.83,7.217c-0.973-0.197-1.97-0.297-2.98-0.297
		c-7.559,0-13.957,5.652-14.882,13.147c-0.338,2.741,1.609,5.237,4.35,5.575c0.208,0.025,0.415,0.038,0.619,0.038
		c2.488,0,4.644-1.855,4.956-4.388c0.308-2.493,2.439-4.373,4.958-4.373c1.334,0,2.334,0.524,2.939,0.964
		c1.438,1.045,3.323,1.249,4.952,0.534c1.628-0.715,2.753-2.241,2.956-4.008c0.289-2.514,2.422-4.41,4.963-4.41
		c1.396,0,2.428,0.572,3.046,1.052c1.422,1.103,3.328,1.356,4.989,0.663c1.661-0.693,2.821-2.226,3.038-4.013
		c0.303-2.503,2.434-4.392,4.956-4.392c1.42,0,2.462,0.585,3.085,1.077c1.404,1.107,3.293,1.379,4.954,0.714
		c1.66-0.666,2.839-2.167,3.091-3.938c0.348-2.442,2.471-4.284,4.94-4.284c1.391,0,2.41,0.563,3.02,1.034
		c1.381,1.069,3.219,1.34,4.849,0.715c1.63-0.625,2.816-2.054,3.13-3.771c0.433-2.375,2.499-4.098,4.911-4.098
		c1.06,0,2.079,0.331,2.945,0.956c1.356,0.979,3.112,1.215,4.678,0.627c1.566-0.586,2.735-1.917,3.116-3.546
		c0.527-2.259,2.522-3.837,4.851-3.837c0.979,0,1.93,0.286,2.751,0.826c1.316,0.866,2.963,1.061,4.446,0.527
		c1.482-0.535,2.626-1.738,3.085-3.245c0.645-2.116,2.569-3.538,4.787-3.538c0.88,0,1.735,0.236,2.541,0.701
		c1.266,0.731,2.789,0.87,4.167,0.383c1.378-0.487,2.474-1.553,2.999-2.917c0.748-1.941,2.574-3.196,4.654-3.196
		c0.768,0,1.516,0.18,2.222,0.536c1.197,0.602,2.584,0.699,3.854,0.27c1.269-0.431,2.312-1.352,2.895-2.558
		c0.847-1.75,2.57-2.837,4.499-2.837c0.659,0,1.299,0.127,1.903,0.377c2.297,0.955,4.946,0.074,6.216-2.064
		c0.909-1.53,2.509-2.443,4.281-2.443c0.846,0,1.645,0.203,2.373,0.603c1.209,0.664,2.64,0.8,3.95,0.373
		c1.312-0.426,2.39-1.375,2.978-2.622c0.84-1.779,2.575-2.884,4.529-2.884c1.022,0,2.003,0.308,2.839,0.891
		c1.265,0.882,2.867,1.132,4.34,0.675c1.474-0.457,2.654-1.567,3.199-3.011c0.746-1.978,2.584-3.255,4.682-3.255
		c1.4,0,2.433,0.577,3.052,1.061c2.178,1.701,5.319,1.313,7.018-0.863C290.289,156.97,289.903,153.828,287.727,152.128z"/>
	<path d="M417.608,181.887c0-8.097-6.587-14.684-14.684-14.684c-0.018,0-0.036,0-0.053,0c-2.747-3.143-6.726-4.994-11.031-4.994
		c-1.489,0-2.95,0.223-4.345,0.656c-2.601-2.181-5.903-3.409-9.407-3.409c-2.288,0-4.493,0.519-6.484,1.501
		c-2.396-1.609-5.246-2.506-8.178-2.506c-2.872,0-5.656,0.856-8.016,2.396c-2.181-1.239-4.668-1.909-7.245-1.909
		c-2.359,0-4.638,0.584-6.676,1.629c0.991-1.501,1.724-3.187,2.125-4.999c3.816-2.787,6.165-7.282,6.165-12.111
		c0-1.439-0.207-2.86-0.609-4.226c2.127-2.634,3.329-5.946,3.329-9.415c0-0.032-0.004-0.063-0.004-0.095
		c38.923-20.389,41.628-30.969,40.187-37.187c-0.653-2.834-2.478-5.015-5.14-6.139c-2.935-1.241-10.621-4.468-46.117,16.661
		c-0.569-0.289-1.155-0.552-1.764-0.768c-2.416-5.19-7.708-8.701-13.612-8.701c-1.059,0-2.119,0.115-3.155,0.34
		c-2.67-2.233-6.069-3.5-9.625-3.5c-2.386,0-4.715,0.569-6.81,1.64c-1.914-0.856-4.006-1.31-6.13-1.31
		c-3.418,0-6.688,1.17-9.305,3.245c-1.477-0.479-3.023-0.725-4.596-0.725c-4.399,0-8.491,1.946-11.288,5.145
		c-1.376-0.411-2.81-0.625-4.252-0.625c-4.394,0-8.506,1.961-11.311,5.173c-1.214-0.313-2.471-0.473-3.749-0.473
		c-4.211,0-8.185,1.799-10.985,4.803c-0.934-0.181-1.888-0.273-2.845-0.273c-3.931,0-7.681,1.571-10.447,4.256
		c-0.644-0.084-1.296-0.126-1.953-0.126c-4.276,0-8.212,1.768-10.999,4.795c-0.811-0.136-1.636-0.205-2.471-0.205
		c-4.542,0-8.681,1.99-11.467,5.316c-0.953-0.19-1.922-0.287-2.893-0.287c-4.767,0-9.081,2.194-11.854,5.778
		c-1.05-0.23-2.127-0.348-3.216-0.348c-4.957,0-9.413,2.385-12.155,6.194c-1.116-0.261-2.266-0.395-3.435-0.395
		c-5.086,0-9.66,2.55-12.383,6.537c-1.142-0.276-2.323-0.417-3.527-0.417c-5.188,0-9.869,2.708-12.57,6.85
		c-1.143-0.276-2.318-0.419-3.5-0.419c-5.315,0-10.052,2.792-12.719,7.057c-1.075-0.243-2.184-0.367-3.311-0.367
		c-5.4,0-10.188,2.861-12.83,7.217c-0.973-0.197-1.97-0.297-2.98-0.297c-5.427,0-10.256,2.914-12.891,7.331
		c-0.827-0.14-1.669-0.211-2.52-0.211c-5.406,0-10.267,2.951-12.907,7.401c-0.629-0.081-1.265-0.121-1.903-0.121
		c-5.484,0-10.34,2.934-12.957,7.438c-0.356-0.025-0.714-0.038-1.073-0.038c-5.47,0-10.376,2.976-12.997,7.51
		c-0.028,0-0.055,0-0.083,0c-5.453,0-10.412,3.025-13.033,7.601c-5.143,0.377-9.646,3.349-12.05,7.767
		c-4.626,0.793-8.572,3.695-10.715,7.815c-6.764,1.451-11.852,7.476-11.852,14.667c0,2.285,0.52,4.511,1.5,6.53
		c-1.379,2.305-2.131,4.961-2.131,7.689c0,8.271,6.729,15,15,15c0.04,0,0.08,0,0.119,0c2.809,3.247,6.898,5.161,11.321,5.161
		c1.551,0,3.072-0.237,4.524-0.699c2.666,2.262,6.066,3.539,9.675,3.539c2.362,0,4.638-0.541,6.689-1.565
		c2.456,1.686,5.374,2.605,8.451,2.605c2.966,0,5.843-0.896,8.274-2.507c2.25,1.296,4.822,1.998,7.485,1.998
		c3.476,0,6.792-1.214,9.423-3.337c1.31,0.648,2.717,1.08,4.164,1.325c-0.257,0.664-0.473,1.349-0.632,2.056
		c-3.711,2.735-5.993,7.119-5.993,11.823c0,1.381,0.194,2.745,0.572,4.056c-1.95,2.447-3.078,5.482-3.183,8.67
		c-10.577,2.952-37.086,10.287-50.698,13.491c-12.543,2.955-20.817,7.594-24.594,13.79c-2.208,3.623-2.827,7.73-1.79,11.882
		c0.431,1.722,1.573,3.169,3.216,4.075c1.208,0.666,2.822,1.245,6.063,1.245c5.414,0,15.361-1.617,35.51-7.143
		c15.718-4.311,32.149-9.532,40.702-12.313c1.208,0.943,2.567,1.705,4.044,2.236c2.377,5.052,7.54,8.465,13.297,8.465
		c1.013,0,2.026-0.107,3.019-0.317c2.604,2.156,5.907,3.377,9.358,3.377c2.313,0,4.57-0.547,6.604-1.576
		c1.857,0.819,3.878,1.253,5.925,1.253c3.317,0,6.493-1.125,9.046-3.124c1.417,0.448,2.904,0.678,4.418,0.678
		c4.271,0,8.242-1.87,10.977-4.948c1.31,0.378,2.677,0.572,4.076,0.572c4.269,0,8.264-1.889,11.004-4.987
		c1.162,0.292,2.361,0.441,3.58,0.441c4.094,0,7.957-1.737,10.693-4.642c0.889,0.166,1.793,0.251,2.701,0.251
		c3.815,0,7.462-1.517,10.167-4.11c0.607,0.077,1.22,0.115,1.838,0.115c4.081,0,7.948-1.738,10.687-4.639
		c0.774,0.126,1.562,0.19,2.359,0.19c4.408,0,8.433-1.919,11.162-5.131c0.903,0.173,1.822,0.262,2.746,0.262
		c4.628,0,8.821-2.116,11.538-5.578c0.997,0.212,2.019,0.32,3.052,0.32c4.809,0,9.139-2.298,11.833-5.977
		c1.06,0.242,2.152,0.365,3.26,0.365c4.947,0,9.396-2.461,12.067-6.317c1.086,0.254,2.208,0.383,3.349,0.383
		c5.032,0,9.578-2.606,12.233-6.6c1.079,0.25,2.192,0.377,3.327,0.377c5.164,0,9.771-2.692,12.392-6.813
		c1.019,0.222,2.067,0.334,3.133,0.334c5.244,0,9.899-2.76,12.498-6.972c0.919,0.179,1.86,0.27,2.813,0.27
		c5.271,0,9.965-2.811,12.556-7.083c0.776,0.126,1.565,0.19,2.36,0.19c5.263,0,9.993-2.85,12.586-7.156
		c0.582,0.071,1.169,0.106,1.758,0.106c5.34,0,10.07-2.839,12.64-7.205c0.316,0.021,0.633,0.031,0.951,0.031
		c5.316,0,10.09-2.875,12.669-7.265c5.408-0.003,10.185-2.887,12.734-7.372c4.965-0.4,9.307-3.269,11.65-7.527
		c4.473-0.79,8.289-3.596,10.384-7.574c6.585-1.448,11.528-7.329,11.528-14.343c0-2.209-0.495-4.36-1.431-6.315
		C416.887,187.104,417.608,184.53,417.608,181.887z M348.428,110.534c1.825-1.07,3.568-2.069,5.232-3.001
		c0.626,2.472,1.835,5.198,4.026,7.945c-2.569,1.479-5.415,3.048-8.532,4.7c0.318-1.222,0.485-2.481,0.485-3.749
		C349.639,114.343,349.205,112.35,348.428,110.534z M382.603,95.468c0.051,0,0.101,0.001,0.148,0.002
		c-0.653,1.659-3.575,6.382-16.4,14.723c-2.875-3.095-3.362-5.927-3.306-7.648C373.934,97.11,380.02,95.468,382.603,95.468z
		 M81.346,248.07c-1.588,0.177-2.995,1.102-3.788,2.488c-0.889,1.555-2.552,2.521-4.339,2.521c-1.488,0-2.894-0.659-3.855-1.809
		c-0.985-1.178-2.455-1.829-3.994-1.789c-1.535,0.049-2.963,0.801-3.872,2.04c-0.964,1.314-2.437,2.068-4.039,2.068
		c-1.581,0-3.043-0.74-4.01-2.03c-0.874-1.166-2.213-1.892-3.666-1.989c-1.458-0.097-2.877,0.444-3.898,1.482
		c-0.949,0.965-2.215,1.496-3.565,1.496c-1.718,0-3.296-0.875-4.223-2.341c-0.732-1.158-1.907-1.965-3.25-2.232
		c-1.345-0.268-2.739,0.028-3.858,0.818c-0.85,0.599-1.841,0.916-2.868,0.916c-1.89,0-3.6-1.055-4.462-2.754
		c-1.063-2.094-3.441-3.166-5.712-2.576c-0.442,0.114-0.856,0.17-1.266,0.17c-2.757,0-5-2.243-5-5c0-1.426,0.589-2.742,1.658-3.707
		c0.994-0.896,1.587-2.153,1.647-3.49c0.06-1.337-0.419-2.642-1.329-3.623c-0.614-0.663-1.346-1.79-1.346-3.4
		c0-2.757,2.243-5,4.929-5.001l0.114,0.008c2.46,0.19,4.677-1.454,5.236-3.852c0.529-2.27,2.528-3.855,4.86-3.855
		c0.183,0,0.359,0.016,0.536,0.028c2.417,0.157,4.624-1.438,5.202-3.802c0.549-2.247,2.544-3.816,4.853-3.816
		c0.351,0,0.718,0.042,1.123,0.129c2.682,0.575,5.326-1.119,5.926-3.795c0.627-2.797,3.625-4.599,6.532-3.609
		c1.365,0.464,2.866,0.315,4.114-0.407c1.248-0.723,2.124-1.95,2.401-3.365c0.457-2.331,2.519-4.022,4.903-4.022
		c0.711,0,1.409,0.156,2.074,0.465c1.413,0.656,3.053,0.616,4.434-0.109c1.38-0.726,2.342-2.054,2.603-3.591
		c0.408-2.413,2.477-4.164,4.92-4.164c0.875,0,1.694,0.215,2.436,0.639c1.437,0.824,3.188,0.881,4.676,0.155
		c1.488-0.726,2.521-2.141,2.757-3.78c0.354-2.448,2.478-4.294,4.941-4.294c0.996,0,1.918,0.274,2.741,0.816
		c1.445,0.951,3.276,1.088,4.847,0.362c1.569-0.725,2.653-2.21,2.865-3.926c0.308-2.493,2.439-4.373,4.958-4.373
		c1.334,0,2.334,0.524,2.938,0.963c1.438,1.046,3.324,1.25,4.952,0.534c1.628-0.715,2.754-2.241,2.957-4.008
		c0.289-2.514,2.422-4.41,4.963-4.41c1.396,0,2.428,0.572,3.046,1.052c1.423,1.103,3.328,1.356,4.989,0.663s2.821-2.226,3.038-4.013
		c0.303-2.503,2.434-4.392,4.956-4.392c1.42,0,2.462,0.586,3.085,1.077c1.405,1.106,3.293,1.378,4.954,0.714
		c1.66-0.666,2.839-2.167,3.091-3.938c0.348-2.442,2.471-4.284,4.939-4.284c1.392,0,2.41,0.562,3.02,1.034
		c1.381,1.069,3.22,1.339,4.849,0.716c1.63-0.625,2.817-2.055,3.13-3.772c0.433-2.375,2.499-4.098,4.911-4.098
		c1.061,0,2.079,0.331,2.945,0.955c1.356,0.979,3.112,1.215,4.678,0.627c1.566-0.586,2.735-1.917,3.116-3.545
		c0.527-2.259,2.522-3.837,4.851-3.837c0.979,0,1.93,0.286,2.75,0.826c1.316,0.867,2.964,1.061,4.447,0.527
		c1.482-0.535,2.626-1.737,3.085-3.245c0.645-2.116,2.569-3.538,4.788-3.538c0.88,0,1.735,0.236,2.541,0.701
		c1.266,0.731,2.789,0.871,4.167,0.383s2.474-1.553,2.999-2.917c0.748-1.942,2.574-3.196,4.654-3.196
		c0.769,0,1.516,0.18,2.221,0.535c1.196,0.603,2.585,0.699,3.855,0.27c1.27-0.431,2.313-1.353,2.896-2.559
		c0.846-1.75,2.57-2.836,4.499-2.836c0.659,0,1.298,0.127,1.902,0.378c2.296,0.954,4.947,0.074,6.217-2.065
		c0.908-1.53,2.508-2.443,4.281-2.443c0.847,0,1.645,0.203,2.372,0.602c1.209,0.665,2.64,0.801,3.951,0.374
		c1.312-0.425,2.39-1.374,2.979-2.622c0.84-1.779,2.575-2.884,4.529-2.884c1.022,0,2.003,0.308,2.839,0.891
		c1.264,0.882,2.866,1.133,4.34,0.675c1.474-0.456,2.654-1.567,3.199-3.011c0.746-1.978,2.584-3.255,4.682-3.255
		c1.4,0,2.433,0.577,3.053,1.061c1.264,0.987,2.925,1.308,4.467,0.863c1.541-0.446,2.774-1.604,3.317-3.113
		c0.715-1.992,2.605-3.33,4.704-3.33c1.008,0,1.993,0.312,2.847,0.903c2.27,1.569,5.382,1.002,6.955-1.267
		c0.934-1.35,2.466-2.156,4.099-2.156c1.465,0,2.508,0.598,3.125,1.1c1.906,1.548,4.652,1.485,6.484-0.15
		c0.925-0.826,2.108-1.28,3.331-1.28c1.654,0,3.149,0.782,4.102,2.145c1.437,2.056,4.173,2.728,6.398,1.575
		c0.717-0.371,1.483-0.56,2.28-0.56c2.347,0,4.403,1.661,4.889,3.949c0.445,2.095,2.174,3.673,4.301,3.926
		c2.508,0.298,4.4,2.433,4.4,4.965c0,0.899-0.253,1.795-0.732,2.589c-1.36,2.256-0.736,5.18,1.426,6.685
		c1.356,0.944,2.166,2.482,2.166,4.116c0,1.638-0.807,3.172-2.159,4.104c-2.222,1.533-2.827,4.552-1.366,6.822
		c0.534,0.83,0.805,1.743,0.805,2.714c0,1.939-1.139,3.716-2.902,4.528c-1.734,0.799-2.862,2.516-2.907,4.425
		c-0.06,2.557-2.019,4.648-4.556,4.865c-2.324,0.198-4.203,1.978-4.527,4.288c-0.084,0.601-0.282,1.182-0.57,1.713
		c-0.546,0.376-1.076,0.775-1.568,1.222c-1.77-0.74-3.686-1.128-5.659-1.128c-3.944,0-7.638,1.582-10.339,4.262
		c-1.549-0.544-3.189-0.829-4.854-0.829c-4.037,0-7.816,1.662-10.534,4.462c-1.294-0.369-2.642-0.558-4.014-0.558
		c-4.064,0-7.818,1.635-10.531,4.445c-1.004-0.216-2.031-0.326-3.063-0.326c-3.891,0-7.578,1.556-10.29,4.22
		c-0.672-0.094-1.352-0.141-2.038-0.141c-3.684,0-7.189,1.385-9.863,3.811c-0.296-0.018-0.592-0.027-0.889-0.027
		c-4.833,0-9.222,2.38-11.918,6.114c-1.177-0.3-2.392-0.456-3.615-0.456c-4.843,0-9.188,2.338-11.871,6.032
		c-1.39-0.43-2.849-0.653-4.337-0.653c-3.864,0-7.46,1.479-10.153,4.076c-0.582-0.07-1.168-0.105-1.759-0.105
		c-4.307,0-8.286,1.862-11.022,4.975c-0.861-0.157-1.738-0.236-2.617-0.236c-4.658,0-8.934,2.221-11.655,5.771
		c-1.013-0.218-2.052-0.33-3.105-0.33c-4.996,0-9.477,2.503-12.138,6.417c-1.021-0.223-2.071-0.337-3.137-0.337
		c-5.189,0-9.831,2.737-12.446,6.911c-0.895-0.169-1.811-0.256-2.736-0.256c-5.354,0-10.11,2.896-12.675,7.279
		c-0.599-0.075-1.203-0.113-1.809-0.113c-5.448,0-10.325,3.053-12.852,7.615c-5.819-0.104-11,3.136-13.464,8.111
		c-2.482,0.321-4.786,1.28-6.74,2.704c-0.966-0.512-2.082-0.707-3.186-0.516c-1.591,0.275-2.952,1.301-3.653,2.755
		c-0.848,1.759-2.575,2.852-4.506,2.852c-1.416,0-2.726-0.581-3.691-1.635C84.51,248.485,82.928,247.892,81.346,248.07z
		 M42.76,307.484c4.908-1.279,10.153-2.681,15.225-4.054c1.838,0.99,4.979,3.025,5.988,5.745
		c-6.218,1.904-11.922,3.578-17.123,5.042C46.029,311.669,44.647,309.405,42.76,307.484z M69.963,300.158
		c4.338-1.195,8.075-2.234,10.714-2.971c0.046,0.059,0.086,0.122,0.133,0.18c-0.325,1.221-0.492,2.483-0.492,3.755
		c0,0.96,0.103,1.897,0.281,2.809c-2.406,0.779-4.756,1.533-7.045,2.258C72.844,304.058,71.637,302.028,69.963,300.158z
		 M10.818,320.156c1.283-2.105,5.282-6.037,17.52-9.053c2.148,0.304,7.073,1.471,8.794,5.758
		c-13.938,3.646-23.001,5.319-27.08,5.334C10.156,321.497,10.41,320.826,10.818,320.156z M405.734,192.48
		c0.812,0.874,1.259,2.003,1.259,3.18c0,2.557-2.06,4.643-4.607,4.684l-0.268-0.015c-2.386-0.1-4.527,1.522-5.073,3.859
		c-0.497,2.128-2.369,3.615-4.553,3.615c-0.142,0-0.281-0.012-0.419-0.024c-2.472-0.206-4.712,1.399-5.296,3.8
		c-0.512,2.104-2.379,3.574-4.542,3.574c-0.332,0-0.666-0.039-1.021-0.117c-2.689-0.596-5.361,1.097-5.964,3.788
		c-0.585,2.611-3.417,4.314-6.09,3.39c-1.367-0.473-2.872-0.331-4.126,0.39s-2.135,1.95-2.414,3.369
		c-0.43,2.184-2.361,3.77-4.592,3.77c-0.671,0-1.328-0.147-1.955-0.436c-1.415-0.654-3.054-0.611-4.432,0.117
		c-1.378,0.728-2.338,2.056-2.597,3.593c-0.38,2.26-2.318,3.9-4.608,3.9c-0.813,0-1.587-0.206-2.302-0.611
		c-1.438-0.815-3.187-0.866-4.672-0.138c-1.484,0.729-2.512,2.146-2.745,3.783c-0.326,2.289-2.314,4.015-4.625,4.015
		c-0.913,0-1.8-0.266-2.566-0.77c-1.444-0.95-3.276-1.087-4.846-0.362c-1.569,0.725-2.653,2.209-2.865,3.925
		c-0.29,2.337-2.284,4.1-4.64,4.1c-1.249,0-2.184-0.491-2.749-0.903c-1.438-1.049-3.324-1.255-4.954-0.542
		c-1.63,0.714-2.757,2.241-2.961,4.009c-0.271,2.359-2.27,4.138-4.647,4.138c-1.311,0-2.277-0.535-2.856-0.984
		c-1.423-1.104-3.33-1.356-4.989-0.662c-1.661,0.693-2.821,2.226-3.038,4.013c-0.284,2.344-2.279,4.111-4.642,4.111
		c-1.333,0-2.307-0.548-2.89-1.007c-1.404-1.107-3.293-1.38-4.953-0.716c-1.66,0.664-2.839,2.165-3.093,3.935
		c-0.327,2.287-2.315,4.012-4.625,4.012c-1.304,0-2.268-0.531-2.846-0.976c-1.382-1.064-3.22-1.331-4.847-0.704
		c-1.628,0.627-2.812,2.057-3.123,3.774c-0.403,2.225-2.338,3.84-4.6,3.84c-1.244,0-2.175-0.487-2.738-0.896
		c-1.354-0.984-3.111-1.224-4.679-0.64c-1.569,0.583-2.742,1.912-3.125,3.542c-0.5,2.123-2.371,3.606-4.55,3.606
		c-0.917,0-1.806-0.268-2.572-0.773c-1.316-0.868-2.965-1.066-4.449-0.531s-2.629,1.738-3.088,3.247
		c-0.595,1.953-2.437,3.316-4.48,3.316c-0.832,0-1.624-0.217-2.354-0.644c-1.265-0.741-2.792-0.89-4.176-0.406
		c-1.384,0.483-2.486,1.55-3.015,2.918c-0.705,1.823-2.417,3.001-4.363,3.001c-0.724,0-1.427-0.168-2.089-0.501
		c-1.197-0.601-2.586-0.696-3.852-0.265c-1.268,0.431-2.31,1.353-2.893,2.559c-0.792,1.639-2.406,2.657-4.212,2.657
		c-0.615,0-1.216-0.12-1.787-0.355c-2.291-0.946-4.929-0.071-6.201,2.056c-0.858,1.437-2.36,2.294-4.018,2.294
		c-0.794,0-1.548-0.191-2.239-0.569c-1.21-0.661-2.639-0.793-3.948-0.365c-1.31,0.427-2.385,1.377-2.972,2.624
		c-0.772,1.64-2.434,2.7-4.234,2.7c-0.957,0-1.879-0.291-2.668-0.84c-1.266-0.882-2.868-1.13-4.343-0.672
		c-1.474,0.458-2.653,1.571-3.196,3.016c-0.684,1.819-2.442,3.042-4.377,3.042c-1.319,0-2.288-0.54-2.869-0.992
		c-1.265-0.985-2.925-1.305-4.467-0.858c-1.541,0.447-2.773,1.606-3.314,3.116c-0.666,1.86-2.435,3.11-4.402,3.11
		c-0.954,0-1.874-0.288-2.659-0.833c-2.267-1.572-5.381-1.01-6.957,1.257c-0.879,1.266-2.317,2.021-3.848,2.021
		c-1.363,0-2.35-0.566-2.937-1.041c-1.907-1.541-4.651-1.472-6.478,0.163c-0.611,0.547-1.648,1.2-3.114,1.2
		c-1.523,0-2.958-0.751-3.839-2.01c-0.964-1.378-2.513-2.135-4.1-2.135c-0.777,0-1.563,0.181-2.295,0.56
		c-0.673,0.349-1.395,0.525-2.144,0.525c-2.198,0-4.124-1.558-4.579-3.704c-0.444-2.096-2.175-3.676-4.302-3.929
		c-2.349-0.279-4.121-2.275-4.121-4.644c0-0.857,0.23-1.67,0.684-2.417c1.372-2.26,0.747-5.197-1.425-6.703
		c-1.269-0.879-2.026-2.319-2.026-3.852c0-1.533,0.757-2.973,2.026-3.852c2.218-1.536,2.817-4.556,1.354-6.822
		c-0.49-0.759-0.749-1.633-0.749-2.529c0-1.815,1.072-3.483,2.73-4.249c1.733-0.8,2.859-2.518,2.902-4.426
		c0.055-2.392,1.888-4.349,4.266-4.552c2.329-0.199,4.208-1.984,4.527-4.3c0.317-2.301,2.307-4.037,4.629-4.037
		c0.25,0,0.523,0.027,0.834,0.083c1.32,0.235,2.683-0.069,3.777-0.847c1.094-0.778,1.83-1.963,2.041-3.29
		c0.363-2.283,2.303-3.94,4.614-3.94c0.593,0,1.179,0.114,1.741,0.34c1.425,0.571,3.034,0.457,4.363-0.312
		c1.33-0.768,2.232-2.105,2.449-3.625c0.326-2.29,2.314-4.016,4.625-4.016c0.832,0,1.624,0.217,2.353,0.644
		c1.453,0.852,3.236,0.913,4.744,0.167c1.508-0.747,2.541-2.202,2.746-3.873c0.287-2.339,2.282-4.104,4.641-4.104
		c0.967,0,1.9,0.298,2.697,0.863c1.432,1.015,3.291,1.205,4.898,0.5c1.607-0.705,2.728-2.2,2.952-3.94
		c0.299-2.324,2.292-4.077,4.636-4.077c1.262,0,2.206,0.502,2.774,0.923c1.392,1.031,3.216,1.268,4.825,0.626
		c1.608-0.64,2.771-2.067,3.073-3.772c0.396-2.235,2.332-3.857,4.603-3.857c0.942,0,1.849,0.278,2.624,0.804
		c1.333,0.906,3.023,1.113,4.536,0.556c1.514-0.557,2.665-1.81,3.094-3.364c0.558-2.024,2.411-3.438,4.507-3.438
		c0.804,0,1.567,0.198,2.269,0.589c1.243,0.692,2.724,0.822,4.07,0.355s2.428-1.484,2.977-2.798
		c0.731-1.752,2.429-2.884,4.325-2.884c0.599,0,1.19,0.116,1.756,0.345c2.274,0.923,4.882,0.055,6.153-2.044
		c0.861-1.422,2.358-2.271,4.003-2.271c1.2,0,2.345,0.46,3.223,1.297c1.339,1.275,3.272,1.708,5.025,1.125
		c1.754-0.583,3.043-2.086,3.353-3.908c0.382-2.255,2.32-3.892,4.607-3.892c1.35,0,2.331,0.558,2.916,1.026
		c1.363,1.091,3.196,1.39,4.835,0.792c1.64-0.598,2.849-2.007,3.19-3.719c0.435-2.177,2.365-3.757,4.591-3.757
		c0.45,0,0.904,0.067,1.348,0.2c2.076,0.621,4.316-0.167,5.547-1.951c1.25-1.811,3.721-2.526,5.745-1.631
		c2.348,1.038,5.1,0.13,6.369-2.101c0.835-1.468,2.395-2.38,4.072-2.38c0.833,0,1.627,0.218,2.359,0.648
		c1.202,0.705,2.645,0.879,3.978,0.475c1.334-0.403,2.44-1.345,3.05-2.598c0.794-1.631,2.407-2.645,4.207-2.645
		c1.249,0,2.184,0.491,2.749,0.904c1.222,0.891,2.78,1.182,4.24,0.79c1.46-0.391,2.665-1.421,3.278-2.804
		c0.752-1.697,2.433-2.794,4.281-2.794c1.432,0,2.452,0.623,3.056,1.145c1.2,1.039,2.824,1.444,4.371,1.096
		c1.548-0.349,2.839-1.413,3.478-2.866c0.749-1.705,2.433-2.807,4.289-2.807c1.237,0,2.405,0.48,3.289,1.353
		c1.149,1.134,2.775,1.643,4.368,1.368c1.592-0.276,2.952-1.305,3.651-2.761c0.791-1.645,2.406-2.667,4.217-2.667
		c1.322,0,2.548,0.545,3.452,1.534c1.077,1.179,2.649,1.772,4.242,1.597c1.588-0.176,2.996-1.1,3.79-2.486
		c0.836-1.462,2.394-2.37,4.065-2.37c1.394,0,2.708,0.617,3.603,1.693c0.985,1.183,2.47,1.839,4,1.799
		c1.54-0.048,2.971-0.804,3.879-2.047c0.897-1.228,2.275-1.932,3.778-1.932c1.484,0,2.851,0.691,3.75,1.895
		c0.873,1.169,2.212,1.899,3.668,1.998c1.454,0.092,2.882-0.444,3.904-1.484c0.89-0.906,2.076-1.404,3.339-1.404
		c1.609,0,3.089,0.82,3.958,2.194c0.732,1.158,1.907,1.964,3.25,2.232c1.343,0.266,2.737-0.028,3.857-0.817
		c0.794-0.56,1.724-0.855,2.688-0.855c1.77,0,3.37,0.988,4.175,2.578c1.064,2.1,3.449,3.172,5.724,2.579
		c0.418-0.109,0.806-0.163,1.185-0.163c2.583,0,4.684,2.101,4.684,4.684c0,1.335-0.554,2.569-1.559,3.475
		c-0.995,0.897-1.589,2.155-1.648,3.493S404.823,191.499,405.734,192.48z"/>
	<path d="M345.399,180.929c-3.944,0-7.638,1.583-10.339,4.262c-1.548-0.544-3.188-0.829-4.853-0.829
		c-4.037,0-7.816,1.662-10.535,4.462c-1.294-0.369-2.641-0.558-4.014-0.558c-4.063,0-7.818,1.635-10.53,4.445
		c-1.004-0.216-2.031-0.326-3.063-0.326c-3.891,0-7.578,1.556-10.29,4.22c-0.672-0.094-1.352-0.141-2.039-0.141
		c-3.683,0-7.189,1.385-9.863,3.811c-0.296-0.018-0.593-0.027-0.889-0.027c-4.832,0-9.222,2.38-11.918,6.114
		c-1.176-0.3-2.391-0.456-3.615-0.456c-4.843,0-9.187,2.338-11.871,6.032c-1.39-0.43-2.849-0.653-4.337-0.653
		c-3.863,0-7.459,1.478-10.153,4.076c-0.582-0.07-1.168-0.105-1.759-0.105c-4.307,0-8.286,1.862-11.022,4.975
		c-0.861-0.156-1.738-0.236-2.617-0.236c-4.658,0-8.934,2.221-11.655,5.771c-1.013-0.218-2.052-0.33-3.105-0.33
		c-4.997,0-9.477,2.503-12.138,6.417c-1.021-0.223-2.071-0.337-3.137-0.337c-5.189,0-9.831,2.737-12.446,6.911
		c-0.896-0.169-1.811-0.256-2.737-0.256c-5.354,0-10.11,2.897-12.675,7.279c-0.599-0.075-1.203-0.113-1.809-0.113
		c-5.448,0-10.325,3.053-12.851,7.615c-5.82-0.131-11.001,3.138-13.464,8.111c-5.251,0.68-9.728,4.183-11.71,9.01
		c-5.667,1.964-9.696,7.273-9.838,13.53c-0.063,2.761,2.124,5.05,4.885,5.112c0.039,0.001,0.077,0.001,0.116,0.001
		c2.709,0,4.935-2.165,4.997-4.886c0.055-2.392,1.889-4.349,4.266-4.552c2.329-0.199,4.209-1.985,4.527-4.3
		c0.317-2.301,2.307-4.036,4.629-4.036c0.252,0,0.524,0.027,0.832,0.082c1.321,0.237,2.685-0.067,3.779-0.846
		c1.095-0.778,1.831-1.964,2.042-3.291c0.363-2.283,2.303-3.939,4.614-3.939c0.593,0,1.178,0.114,1.74,0.34
		c1.424,0.572,3.034,0.458,4.364-0.311s2.232-2.105,2.449-3.625c0.326-2.29,2.314-4.016,4.625-4.016
		c0.832,0,1.625,0.217,2.354,0.644c1.452,0.851,3.236,0.913,4.744,0.167c1.508-0.747,2.54-2.202,2.745-3.873
		c0.287-2.339,2.282-4.104,4.641-4.104c0.967,0,1.899,0.298,2.696,0.863c1.432,1.015,3.292,1.205,4.898,0.5
		c1.608-0.705,2.728-2.2,2.952-3.941c0.299-2.324,2.292-4.077,4.636-4.077c1.263,0,2.205,0.501,2.773,0.922
		c1.392,1.031,3.217,1.267,4.825,0.627c1.608-0.641,2.771-2.067,3.074-3.772c0.396-2.235,2.332-3.857,4.603-3.857
		c0.942,0,1.85,0.278,2.625,0.804c1.334,0.906,3.023,1.113,4.536,0.556c1.513-0.557,2.665-1.81,3.093-3.364
		c0.558-2.024,2.411-3.438,4.507-3.438c0.804,0,1.567,0.198,2.269,0.589c1.243,0.692,2.724,0.822,4.07,0.355
		s2.428-1.484,2.977-2.798c0.731-1.752,2.429-2.884,4.325-2.884c0.599,0,1.189,0.116,1.754,0.345
		c2.276,0.924,4.883,0.055,6.154-2.044c0.861-1.422,2.358-2.271,4.003-2.271c1.2,0,2.345,0.46,3.223,1.297
		c1.339,1.275,3.273,1.707,5.025,1.125c1.754-0.583,3.044-2.086,3.353-3.908c0.383-2.256,2.321-3.893,4.607-3.893
		c1.35,0,2.331,0.558,2.916,1.026c1.363,1.09,3.197,1.391,4.835,0.792c1.64-0.598,2.849-2.007,3.19-3.719
		c0.435-2.177,2.365-3.757,4.591-3.757c0.45,0,0.904,0.067,1.348,0.2c2.076,0.62,4.315-0.167,5.546-1.95
		c1.25-1.813,3.721-2.527,5.746-1.632c2.348,1.038,5.1,0.13,6.369-2.101c0.835-1.468,2.395-2.38,4.072-2.38
		c0.833,0,1.627,0.218,2.36,0.648c1.203,0.707,2.644,0.877,3.978,0.475c1.334-0.403,2.439-1.345,3.049-2.598
		c0.794-1.631,2.406-2.645,4.207-2.645c1.249,0,2.185,0.491,2.75,0.903c1.222,0.892,2.779,1.182,4.241,0.791
		c1.46-0.391,2.665-1.422,3.277-2.804c0.752-1.697,2.433-2.793,4.281-2.793c1.432,0,2.452,0.623,3.056,1.145
		c1.201,1.039,2.824,1.444,4.371,1.096c1.548-0.35,2.839-1.414,3.477-2.867c0.749-1.705,2.432-2.807,4.288-2.807
		c1.237,0,2.405,0.48,3.289,1.353c1.965,1.939,5.13,1.92,7.071-0.045c1.94-1.965,1.92-5.131-0.045-7.071
		C352.946,182.433,349.283,180.929,345.399,180.929z"/>
	<path d="M336.842,205.582c-0.25,0-0.524-0.027-0.835-0.083c-1.324-0.236-2.684,0.069-3.777,0.847
		c-1.094,0.778-1.83,1.963-2.041,3.289c-0.363,2.283-2.304,3.94-4.614,3.94c-0.592,0-1.177-0.115-1.74-0.34
		c-1.428-0.573-3.035-0.458-4.364,0.311c-1.33,0.769-2.232,2.105-2.449,3.625c-0.326,2.29-2.314,4.016-4.625,4.016
		c-0.832,0-1.624-0.217-2.354-0.645c-1.453-0.85-3.236-0.911-4.744-0.166c-1.508,0.747-2.54,2.202-2.745,3.872
		c-0.287,2.34-2.282,4.104-4.641,4.104c-0.967,0-1.9-0.298-2.697-0.863c-1.432-1.015-3.291-1.206-4.898-0.5
		c-1.607,0.705-2.728,2.2-2.952,3.94c-0.299,2.324-2.292,4.077-4.636,4.077c-1.263,0-2.206-0.501-2.774-0.922
		c-1.39-1.03-3.216-1.268-4.825-0.626c-1.608,0.64-2.771,2.067-3.073,3.771c-0.396,2.235-2.332,3.857-4.603,3.857
		c-0.942,0-1.85-0.278-2.625-0.804c-1.334-0.905-3.022-1.113-4.536-0.556c-1.513,0.557-2.665,1.81-3.093,3.364
		c-0.558,2.024-2.411,3.438-4.507,3.438c-0.803,0-1.567-0.198-2.27-0.589c-1.244-0.692-2.725-0.82-4.069-0.355
		c-1.345,0.467-2.428,1.484-2.976,2.798c-0.731,1.752-2.429,2.884-4.325,2.884c-0.6,0-1.189-0.116-1.752-0.344
		c-2.277-0.923-4.884-0.057-6.156,2.043c-0.861,1.423-2.358,2.272-4.004,2.272c-1.2,0-2.345-0.461-3.224-1.298
		c-1.339-1.274-3.27-1.706-5.024-1.123c-1.754,0.583-3.043,2.086-3.353,3.908c-0.383,2.255-2.32,3.892-4.606,3.892
		c-1.35,0-2.331-0.558-2.917-1.026c-1.363-1.089-3.195-1.389-4.835-0.792c-1.639,0.598-2.848,2.007-3.19,3.719
		c-0.435,2.177-2.365,3.757-4.591,3.757c-0.45,0-0.902-0.067-1.345-0.2c-2.075-0.62-4.317,0.167-5.549,1.95
		c-1.25,1.811-3.72,2.527-5.746,1.631c-2.347-1.038-5.099-0.131-6.369,2.101c-0.835,1.468-2.395,2.379-4.072,2.379
		c-0.834,0-1.627-0.218-2.359-0.647c-2.381-1.398-5.446-0.603-6.844,1.778c-1.399,2.381-0.603,5.445,1.778,6.844
		c2.255,1.325,4.823,2.025,7.424,2.025c3.891,0,7.578-1.557,10.291-4.22c0.671,0.094,1.352,0.141,2.038,0.141
		c3.684,0,7.189-1.385,9.863-3.811c5.121,0.307,9.945-2.124,12.807-6.087c1.176,0.3,2.392,0.456,3.615,0.456
		c4.843,0,9.188-2.338,11.871-6.032c1.39,0.43,2.849,0.653,4.336,0.653c3.863,0,7.46-1.479,10.153-4.076
		c0.582,0.07,1.168,0.105,1.759,0.105c4.307,0,8.286-1.861,11.022-4.974c0.862,0.156,1.738,0.236,2.618,0.236
		c4.658,0,8.934-2.221,11.655-5.771c1.013,0.218,2.053,0.33,3.105,0.33c4.996,0,9.477-2.503,12.138-6.417
		c1.021,0.223,2.071,0.337,3.137,0.337c5.189,0,9.831-2.737,12.446-6.911c0.896,0.17,1.811,0.256,2.737,0.256
		c5.353,0,10.11-2.896,12.674-7.279c0.599,0.075,1.203,0.113,1.81,0.113c5.448,0,10.325-3.053,12.851-7.615
		c5.94,0.133,11.207-3.271,13.609-8.414c1.757-0.775,2.984-2.533,2.984-4.577C341.842,207.821,339.603,205.582,336.842,205.582z"/>
</g>
<g>
</g>
<g>
</g>
<g>
</g>
<g>
</g>
<g>
</g>
<g>
</g>
<g>
</g>
<g>
</g>
<g>
</g>
<g>
</g>
<g>
</g>
<g>
</g>
<g>
</g>
<g>
</g>
<g>
</g>
</svg>
